<svg width="155" height="56" viewBox="0 0 155 56" fill="none" xmlns="http://www.w3.org/2000/svg">
<path d="M59.5234 33.668C59.5234 31.1289 60.7358 29.2881 63.1606 28.1455C65.5854 27.0029 68.353 26.3936 71.4634 26.3174V25.5557C71.4634 24.3877 71.1714 23.5625 70.5874 23.0801C70.0034 22.5977 69.1909 22.3564 68.1499 22.3564C67.4136 22.3564 66.7598 22.4644 66.1885 22.6802C65.6299 22.8833 65.1411 23.1245 64.7222 23.4038C64.3159 23.6704 63.9478 23.9434 63.6177 24.2227C63.0337 24.7305 62.5513 24.7559 62.1704 24.2988L60.5898 22.3564C60.1963 21.874 60.2915 21.3789 60.8755 20.8711C61.3198 20.4775 61.834 20.1348 62.418 19.8428C63.0146 19.5508 63.8018 19.2778 64.7793 19.0239C65.7568 18.7573 67.0264 18.624 68.5879 18.624C71.2285 18.624 73.2534 19.2334 74.6626 20.4521C76.0845 21.6709 76.7954 23.4673 76.7954 25.8413V37.8574C76.7954 38.6191 76.4146 39 75.6528 39H72.5298C71.8442 39 71.5015 38.6191 71.5015 37.8574V37.2861H71.4634C70.7144 38.0098 69.813 38.543 68.7593 38.8857C67.7183 39.2158 66.7598 39.3809 65.8838 39.3809C63.8018 39.3809 62.2212 38.873 61.1421 37.8574C60.063 36.8291 59.5234 35.4326 59.5234 33.668ZM65.1602 33.5537C65.1602 33.998 65.249 34.3853 65.4268 34.7153C65.6045 35.0327 65.8838 35.2676 66.2646 35.4199C66.6455 35.5723 67.0708 35.6484 67.5405 35.6484C68.188 35.6484 68.8164 35.5596 69.4258 35.3818C70.0352 35.2041 70.7144 34.7852 71.4634 34.125V29.9927C69.3306 30.2339 67.9023 30.5449 67.1787 30.9258C66.4551 31.3066 65.9346 31.7002 65.6172 32.1064C65.3125 32.5127 65.1602 32.9951 65.1602 33.5537ZM81.5942 37.667C80.9722 37.2227 80.8008 36.7466 81.0801 36.2388L82.0513 34.4678C82.394 33.833 82.9272 33.7568 83.6509 34.2393C84.3745 34.7217 85.2251 35.0771 86.2026 35.3057C87.1929 35.5342 88.0942 35.6484 88.9067 35.6484C89.478 35.6484 90.0112 35.5913 90.5063 35.4771C91.0015 35.3628 91.4204 35.1406 91.7632 34.8105C92.106 34.4805 92.2773 33.998 92.2773 33.3633C92.2773 32.9824 92.1758 32.6587 91.9727 32.3921C91.7695 32.1255 91.5093 31.9224 91.1919 31.7827C90.8745 31.6431 90.5381 31.5288 90.1826 31.4399C89.7129 31.3257 89.0337 31.1353 88.145 30.8687C87.269 30.6021 86.4248 30.291 85.6123 29.9355C84.9395 29.6436 84.2793 29.2373 83.6318 28.7168C82.9971 28.1836 82.5273 27.5933 82.2227 26.9458C81.9307 26.2983 81.7847 25.4985 81.7847 24.5464C81.7847 23.2642 82.1528 22.1406 82.8892 21.1758C83.6382 20.2109 84.603 19.5444 85.7837 19.1763C86.9644 18.8081 88.437 18.624 90.2017 18.624C91.395 18.624 92.5566 18.7954 93.6865 19.1382C94.8164 19.481 95.6226 19.8047 96.105 20.1094C96.8667 20.5918 97.0571 21.106 96.6763 21.6519L95.5146 23.3467C95.1592 23.8545 94.5879 23.8926 93.8008 23.4609C93.2041 23.1309 92.6138 22.8643 92.0298 22.6611C91.4585 22.458 90.8174 22.3564 90.1064 22.3564C89.624 22.3564 89.1606 22.4072 88.7163 22.5088C88.272 22.6104 87.8911 22.8008 87.5737 23.0801C87.269 23.3594 87.1167 23.7275 87.1167 24.1846C87.1167 24.667 87.2563 25.0479 87.5356 25.3271C87.8276 25.5938 88.1577 25.7905 88.5259 25.9175C88.9067 26.0444 89.2686 26.165 89.6113 26.2793C90.3223 26.5078 91.0396 26.73 91.7632 26.9458C92.4868 27.1489 93.2231 27.3965 93.9722 27.6885C94.6196 27.9424 95.248 28.3042 95.8574 28.7739C96.4668 29.2437 96.9111 29.8403 97.1904 30.564C97.4697 31.2876 97.6094 32.1128 97.6094 33.0396C97.6094 34.271 97.2412 35.4136 96.5049 36.4673C95.7686 37.521 94.7974 38.27 93.5913 38.7144C92.3853 39.1587 90.9824 39.3809 89.3828 39.3809C87.5928 39.3809 86.0693 39.2539 84.8125 39C83.5557 38.7461 82.4829 38.3018 81.5942 37.667ZM102.294 39C101.532 39 101.151 38.6191 101.151 37.8574V20.1475C101.151 19.3857 101.532 19.0049 102.294 19.0049H105.341C106.103 19.0049 106.483 19.3857 106.483 20.1475V37.8574C106.483 38.6191 106.103 39 105.341 39H102.294ZM102.294 16.0723C101.532 16.0723 101.151 15.6914 101.151 14.9297V12.4922C101.151 11.7305 101.532 11.3496 102.294 11.3496H105.341C106.103 11.3496 106.483 11.7305 106.483 12.4922V14.9297C106.483 15.6914 106.103 16.0723 105.341 16.0723H102.294ZM110.597 29.0024C110.597 26.2095 111.2 23.7847 112.406 21.728C113.625 19.6587 115.726 18.624 118.709 18.624C119.852 18.624 120.829 18.7891 121.642 19.1191C122.454 19.4492 123.19 20.1602 123.851 21.252H123.927C123.876 20.7441 123.851 20.2363 123.851 19.7285V12.0352C123.851 11.2734 124.231 10.8926 124.993 10.8926H128.04C128.802 10.8926 129.183 11.2734 129.183 12.0352V37.8574C129.183 38.6191 128.802 39 128.04 39H125.031C124.396 39 124.054 38.6191 124.003 37.8574L123.927 36.7529H123.851C123.19 37.8447 122.454 38.5557 121.642 38.8857C120.829 39.2158 119.852 39.3809 118.709 39.3809C115.726 39.3809 113.625 38.3525 112.406 36.2959C111.2 34.2266 110.597 31.7954 110.597 29.0024ZM116.233 29.0024C116.233 31.0337 116.494 32.6523 117.014 33.8584C117.547 35.0518 118.671 35.6484 120.385 35.6484C121.337 35.6484 122.149 35.1152 122.822 34.0488C123.508 32.9697 123.851 31.5732 123.851 29.8594V28.1455C123.851 26.4316 123.508 25.0415 122.822 23.9751C122.149 22.896 121.337 22.3564 120.385 22.3564C118.671 22.3564 117.547 22.9595 117.014 24.1655C116.494 25.3589 116.233 26.9712 116.233 29.0024ZM133.296 29.0024C133.296 25.7905 134.096 23.2578 135.695 21.4043C137.308 19.5508 139.58 18.624 142.513 18.624C145.915 18.624 148.441 19.5 150.092 21.252C151.742 23.0039 152.567 25.8223 152.567 29.707C152.567 30.4688 152.212 30.8496 151.501 30.8496H138.933C139.136 32.957 139.656 34.2837 140.494 34.8296C141.332 35.3755 142.303 35.6484 143.408 35.6484C144.461 35.6484 145.268 35.5088 145.826 35.2295C146.385 34.9502 146.854 34.5693 147.235 34.0869C147.667 33.5283 148.2 33.4395 148.835 33.8203L150.739 34.9819C151.488 35.439 151.596 35.9849 151.063 36.6196C150.289 37.5464 149.381 38.2383 148.34 38.6953C147.299 39.1523 145.655 39.3809 143.408 39.3809C139.764 39.3809 137.168 38.4541 135.619 36.6006C134.07 34.7471 133.296 32.2144 133.296 29.0024ZM138.952 27.041H147.235C147.235 25.6699 146.893 24.5527 146.207 23.6895C145.521 22.8135 144.43 22.3755 142.932 22.3755C141.738 22.3755 140.792 22.7944 140.094 23.6323C139.396 24.4575 139.015 25.5938 138.952 27.041Z" fill="white"/>
<circle cx="21.5" cy="28.5" r="21.5" fill="url(#paint0_linear_101_10)"/>
<defs>
<linearGradient id="paint0_linear_101_10" x1="21.5" y1="7" x2="21.5" y2="50" gradientUnits="userSpaceOnUse">
<stop stop-color="#F5CC62"/>
<stop offset="1" stop-color="#E9B42D"/>
</linearGradient>
</defs>
</svg>
