<svg width="48" height="48" viewBox="0 0 48 48" fill="none" xmlns="http://www.w3.org/2000/svg">
<path d="M35.6901 31.3296H25.8473C25.8175 31.3296 25.8026 31.3442 25.8026 31.3734V40.8685C25.8026 40.8976 25.7877 40.9122 25.758 40.9122H16.0438C16.014 40.9122 15.9992 40.8976 15.9992 40.8685V31.3734C15.9992 31.3407 15.9825 31.3244 15.9491 31.3244C14.0706 31.3436 12.0733 31.4049 10.2895 31.1065C8.41096 30.7932 6.63338 29.9032 5.11842 28.7822C4.88677 28.6106 4.65452 28.4219 4.42168 28.216C4.19241 28.0129 3.9691 27.8143 3.75174 27.62C3.24616 27.1667 2.70484 26.5226 2.1278 25.6877C1.65557 25.0046 1.22591 24.186 0.838836 23.2321C0.617308 22.6867 0.444315 22.1295 0.319855 21.5607C-0.172626 19.3069 -0.0964019 17.1019 0.548528 14.9456C1.09818 13.109 2.06795 11.4606 3.45786 10.0003C3.78032 9.66164 4.13852 9.36585 4.48153 9.05693C4.62266 8.92974 4.76588 8.81306 4.91118 8.70688C5.62281 8.18414 6.26119 7.77313 6.82632 7.47383C8.24719 6.72123 9.77734 6.25917 11.4168 6.08764C12.8674 5.93595 14.2457 5.98117 15.5516 6.22329C16.0316 6.31196 16.5425 6.44557 17.0845 6.62409C18.5941 7.12204 20.0385 7.99453 21.2586 9.00442C21.8184 9.46765 22.3621 10.007 22.8897 10.6225C23.0618 10.8232 23.2315 11.0353 23.3989 11.2587C23.565 11.4804 23.716 11.7059 23.8518 11.9352C24.4353 12.9206 24.8986 13.9491 25.2417 15.0209C25.5769 16.0704 25.76 17.237 25.791 18.5205C25.8047 19.0707 25.8077 20.138 25.7999 21.7226C25.7999 21.7535 25.8157 21.7689 25.8473 21.7689H35.6284C35.6582 21.7689 35.6874 21.7736 35.716 21.7829C35.7243 21.7859 35.7329 21.7882 35.7419 21.7899C35.7609 21.7934 35.7609 21.7859 35.7419 21.7672L30.1063 16.2364C30.0999 16.2298 30.0964 16.2211 30.0964 16.2121C30.0964 16.2031 30.0999 16.1946 30.1063 16.1883L35.3051 11.0828C35.3122 11.0753 35.3197 11.0753 35.3274 11.0828L47.9607 23.4877C47.9869 23.5139 48 23.5451 48 23.5813V29.5321C48 29.5625 47.9893 29.5882 47.9678 29.6092L35.3256 41.9947C35.3185 42.0017 35.3113 42.0017 35.3042 41.9947L30.1233 36.919C30.1007 36.8975 30.1007 36.8756 30.1233 36.8534L35.7026 31.3585C35.7222 31.3393 35.718 31.3296 35.6901 31.3296ZM13.8017 15.7227C13.1649 15.5083 12.4762 15.5083 11.8687 15.763C11.493 15.9205 11.1413 16.1297 10.8138 16.3904C10.4035 16.7172 10.1218 17.097 9.96879 17.5299C9.61566 18.5269 9.70082 19.449 10.2243 20.2961C10.5339 20.7967 10.9299 21.1552 11.4123 21.3716C12.0066 21.6383 12.5381 21.7707 13.0068 21.7689C13.9881 21.7649 14.9731 21.7669 15.9616 21.7751C15.9914 21.7757 16.0063 21.7614 16.0063 21.7322C15.998 20.7981 15.9968 19.8553 16.0027 18.9038C16.0069 18.3157 15.9307 17.8242 15.7741 17.4292C15.5948 16.9777 15.3304 16.6142 14.9808 16.3388C14.6551 16.0827 14.2621 15.8773 13.8017 15.7227Z" fill="white"/>
</svg>
