<svg width="538" height="412" viewBox="0 0 538 412" fill="none" xmlns="http://www.w3.org/2000/svg">
<path d="M399.551 289.441H289.361C289.027 289.441 288.861 289.608 288.861 289.941V398.441C288.861 398.775 288.694 398.941 288.361 398.941H179.611C179.277 398.941 179.111 398.775 179.111 398.441V289.941C179.111 289.568 178.924 289.381 178.551 289.381C157.521 289.601 135.161 290.301 115.191 286.891C94.1608 283.311 74.2608 273.141 57.3008 260.331C54.7074 258.371 52.1074 256.215 49.5008 253.861C46.9341 251.541 44.4341 249.271 42.0008 247.051C36.3408 241.871 30.2808 234.511 23.8208 224.971C18.5341 217.165 13.7241 207.811 9.39078 196.911C6.91078 190.678 4.97411 184.311 3.58078 177.811C-1.93255 152.058 -1.07922 126.861 6.14078 102.221C12.2941 81.2348 23.1508 62.3981 38.7108 45.7115C42.3208 41.8415 46.3308 38.4615 50.1708 34.9315C51.7508 33.4781 53.3541 32.1448 54.9808 30.9315C62.9474 24.9581 70.0941 20.2615 76.4208 16.8415C92.3274 8.24148 109.457 2.96148 127.811 1.00148C144.051 -0.731852 159.481 -0.215186 174.101 2.55148C179.474 3.56481 185.194 5.09148 191.261 7.13148C208.161 12.8215 224.331 22.7915 237.991 34.3315C244.257 39.6248 250.344 45.7881 256.251 52.8215C258.177 55.1148 260.077 57.5381 261.951 60.0915C263.811 62.6248 265.501 65.2015 267.021 67.8215C273.554 79.0815 278.741 90.8348 282.581 103.081C286.334 115.075 288.384 128.405 288.731 143.071C288.884 149.358 288.917 161.555 288.831 179.661C288.831 180.015 289.007 180.191 289.361 180.191H398.861C399.194 180.191 399.521 180.245 399.841 180.351C399.934 180.385 400.031 180.411 400.131 180.431C400.344 180.471 400.344 180.385 400.131 180.171L337.041 116.971C336.969 116.896 336.929 116.796 336.929 116.694C336.929 116.591 336.969 116.493 337.041 116.421L395.241 58.0815C395.321 57.9948 395.404 57.9948 395.491 58.0815L536.921 199.831C537.214 200.131 537.361 200.488 537.361 200.901V268.901C537.361 269.248 537.241 269.541 537.001 269.781L395.471 411.311C395.391 411.391 395.311 411.391 395.231 411.311L337.231 353.311C336.977 353.065 336.977 352.815 337.231 352.561L399.691 289.771C399.911 289.551 399.864 289.441 399.551 289.441ZM154.511 111.101C147.381 108.651 139.671 108.651 132.871 111.561C128.664 113.361 124.727 115.751 121.061 118.731C116.467 122.465 113.314 126.805 111.601 131.751C107.647 143.145 108.601 153.681 114.461 163.361C117.927 169.081 122.361 173.178 127.761 175.651C134.414 178.698 140.364 180.211 145.611 180.191C156.597 180.145 167.624 180.168 178.691 180.261C179.024 180.268 179.191 180.105 179.191 179.771C179.097 169.098 179.084 158.325 179.151 147.451C179.197 140.731 178.344 135.115 176.591 130.601C174.584 125.441 171.624 121.288 167.711 118.141C164.064 115.215 159.664 112.868 154.511 111.101Z" fill="black"/>
</svg>
