<svg width="226" height="125" viewBox="0 0 226 125" fill="none" xmlns="http://www.w3.org/2000/svg">
<path d="M143.737 42.2324L144.668 41.8677L143.737 42.2324ZM1.43567 46.5314L0.457325 46.7384L1.43567 46.5314ZM224.935 46.5046C224.92 45.9525 224.461 45.517 223.909 45.5317L214.912 45.7727C214.36 45.7875 213.924 46.2471 213.939 46.7991C213.954 47.3512 214.413 47.7868 214.965 47.772L222.963 47.5578L223.177 55.5549C223.192 56.107 223.651 56.5426 224.203 56.5278C224.755 56.513 225.191 56.0535 225.176 55.5014L224.935 46.5046ZM45.5376 124.832C45.9233 124.317 46.3253 123.811 46.7431 123.315L45.2134 122.027C44.7717 122.551 44.3459 123.087 43.9367 123.633L45.5376 124.832ZM49.4067 120.475C50.3325 119.582 51.3131 118.722 52.344 117.892L51.0892 116.334C50.0156 117.199 48.9903 118.098 48.0188 119.034L49.4067 120.475ZM55.4951 115.546C56.5609 114.812 57.6676 114.101 58.8112 113.413L57.7798 111.699C56.6038 112.407 55.4622 113.14 54.3598 113.9L55.4951 115.546ZM62.2541 111.462C63.4056 110.847 64.5865 110.25 65.7935 109.669L64.9261 107.867C63.6961 108.459 62.49 109.069 61.3116 109.698L62.2541 111.462ZM69.3922 108.015C70.5924 107.487 71.8129 106.972 73.0506 106.469L72.297 104.616C71.0437 105.126 69.806 105.648 68.5871 106.184L69.3922 108.015ZM76.7559 105.011C77.9906 104.541 79.2384 104.08 80.4967 103.626L79.8177 101.744C78.5498 102.202 77.2909 102.667 76.0439 103.142L76.7559 105.011ZM84.2628 102.296C85.5165 101.862 86.7772 101.434 88.0422 101.009L87.4058 99.113C86.1361 99.5392 84.8695 99.9696 83.6088 100.406L84.2628 102.296ZM91.8367 99.7483C93.1043 99.3305 94.373 98.915 95.6408 98.4999L95.0184 96.5992C93.7508 97.0143 92.4804 97.4303 91.2107 97.8487L91.8367 99.7483ZM99.4466 97.2512C100.718 96.8322 101.986 96.412 103.247 95.989L102.611 94.0929C101.355 94.5144 100.091 94.9334 98.8209 95.3516L99.4466 97.2512ZM107.051 94.694C108.326 94.2525 109.591 93.8062 110.843 93.3531L110.162 91.4725C108.921 91.9219 107.665 92.3651 106.397 92.804L107.051 94.694ZM114.615 91.9493C115.881 91.4638 117.129 90.969 118.357 90.4628L117.594 88.6138C116.384 89.113 115.151 89.6017 113.899 90.082L114.615 91.9493ZM122.058 88.8702C123.302 88.3105 124.519 87.7356 125.705 87.1432L124.812 85.3539C123.652 85.9331 122.459 86.4965 121.237 87.0464L122.058 88.8702ZM129.29 85.2415C130.492 84.5626 131.654 83.86 132.771 83.1307L131.677 81.4562C130.6 82.1598 129.475 82.8402 128.307 83.5001L129.29 85.2415ZM136.1 80.766C137.2 79.9137 138.24 79.0257 139.215 78.0979L137.836 76.6492C136.914 77.5265 135.926 78.3708 134.875 79.1855L136.1 80.766ZM142.024 75.0819C142.907 74.004 143.706 72.8764 144.415 71.6946L142.699 70.6666C142.044 71.7598 141.301 72.8078 140.477 73.815L142.024 75.0819ZM146.26 67.9697C146.766 66.7004 147.173 65.3774 147.475 63.997L145.522 63.5689C145.243 64.8429 144.867 66.0618 144.402 67.2302L146.26 67.9697ZM148.048 59.8933C148.134 58.5634 148.13 57.1873 148.034 55.7625L146.039 55.8973C146.129 57.2386 146.132 58.5266 146.052 59.7648L148.048 59.8933ZM147.523 51.6679C147.291 50.3776 146.989 49.0504 146.615 47.6846L144.686 48.2132C145.045 49.5247 145.334 50.7935 145.554 52.0213L147.523 51.6679ZM145.403 43.8374C145.174 43.1891 144.929 42.5326 144.668 41.8677L142.806 42.597C143.059 43.2421 143.296 43.8781 143.518 44.5052L145.403 43.8374ZM144.668 41.8677C144.419 41.2313 144.162 40.603 143.898 39.9829L142.058 40.7664C142.315 41.3684 142.564 41.9786 142.806 42.597L144.668 41.8677ZM142.228 36.3593C141.624 35.1459 140.99 33.9667 140.327 32.8211L138.596 33.8223C139.237 34.9316 139.852 36.0742 140.437 37.2507L142.228 36.3593ZM138.229 29.444C137.476 28.3149 136.694 27.2223 135.883 26.1655L134.296 27.3826C135.08 28.4044 135.836 29.4611 136.565 30.5534L138.229 29.444ZM133.345 23.0745C132.458 22.0645 131.542 21.0916 130.601 20.1549L129.19 21.5725C130.1 22.4779 130.985 23.4183 131.842 24.3945L133.345 23.0745ZM127.665 17.4214C126.656 16.5423 125.621 15.7001 124.563 14.894L123.351 16.4848C124.375 17.2648 125.375 18.0795 126.352 18.9297L127.665 17.4214ZM121.299 12.5682C120.187 11.828 119.054 11.1237 117.901 10.4546L116.897 12.1845C118.015 12.8334 119.114 13.516 120.191 14.233L121.299 12.5682ZM114.381 8.55034C113.191 7.95142 111.984 7.38672 110.76 6.85539L109.964 8.68984C111.153 9.20644 112.326 9.75515 113.481 10.3367L114.381 8.55034ZM107.053 5.36397C105.806 4.90067 104.545 4.46957 103.271 4.06983L102.672 5.97803C103.914 6.36773 105.142 6.78774 106.357 7.2388L107.053 5.36397ZM99.438 2.96966C98.1528 2.63428 96.8573 2.32893 95.5534 2.05278L95.139 4.00939C96.4133 4.27925 97.6785 4.57749 98.933 4.90485L99.438 2.96966ZM91.6347 1.31401C90.3264 1.09704 89.0114 0.907996 87.6913 0.746106L87.4479 2.73123C88.7405 2.88976 90.0276 3.0748 91.3075 3.28706L91.6347 1.31401ZM83.7255 0.341732C82.4039 0.233816 81.079 0.151998 79.7524 0.0955154L79.6673 2.09371C80.9685 2.1491 82.2675 2.22933 83.5627 2.3351L83.7255 0.341732ZM75.7716 0.00133007C74.4448 -0.00526048 73.118 0.0126692 71.7928 0.0543689L71.8557 2.05338C73.157 2.01243 74.4595 1.99484 75.7617 2.00131L75.7716 0.00133007ZM67.8167 0.250477C66.4917 0.339352 65.1699 0.45141 63.853 0.5859L64.0562 2.57555C65.3503 2.44339 66.6489 2.3333 67.9506 2.24599L67.8167 0.250477ZM59.9036 1.05796C58.5847 1.23858 57.2725 1.44133 55.9686 1.66544L56.3074 3.63654C57.589 3.41626 58.8787 3.21698 60.175 3.03947L59.9036 1.05796ZM52.067 2.40459C50.7603 2.67526 49.4641 2.96723 48.1799 3.27971L48.6528 5.223C49.9146 4.91596 51.1885 4.62903 52.4727 4.36301L52.067 2.40459ZM44.3284 4.28833C43.0476 4.64791 41.7811 5.02794 40.531 5.42758L41.14 7.3326C42.3672 6.94027 43.6109 6.56709 44.869 6.2139L44.3284 4.28833ZM36.7475 6.71489C35.487 7.17039 34.2461 7.64613 33.0269 8.14118L33.7794 9.99423C34.974 9.50912 36.1907 9.04267 37.4272 8.59586L36.7475 6.71489ZM29.3825 9.70814C28.1531 10.2673 26.9499 10.8467 25.7754 11.4453L26.6836 13.2272C27.831 12.6424 29.0074 12.0759 30.2105 11.5287L29.3825 9.70814ZM22.2566 13.3457C21.085 14.0162 19.9478 14.7068 18.848 15.4165L19.9324 17.097C21.0012 16.4073 22.108 15.7351 23.2499 15.0816L22.2566 13.3457ZM15.5644 17.6741C14.46 18.4841 13.4028 19.3152 12.3965 20.1659L13.6877 21.6933C14.6571 20.8737 15.678 20.071 16.7472 19.2869L15.5644 17.6741ZM9.42173 22.8871C8.44496 23.8576 7.53296 24.8501 6.69108 25.8629L8.22909 27.1414C9.02781 26.1805 9.89658 25.2346 10.8313 24.3059L9.42173 22.8871ZM4.27668 29.1187C3.51696 30.2805 2.84884 31.4653 2.28014 32.6705L4.08887 33.524C4.61552 32.4079 5.23768 31.3034 5.95056 30.2133L4.27668 29.1187ZM0.833963 36.5049C0.456508 37.8366 0.202612 39.1873 0.0816604 40.5527L2.07386 40.7292C2.18329 39.4938 2.41341 38.2666 2.75817 37.0502L0.833963 36.5049ZM0.125747 44.677C0.201471 45.3627 0.311711 46.05 0.457325 46.7384L2.41402 46.3245C2.28192 45.7 2.18213 45.0775 2.11366 44.4575L0.125747 44.677ZM0.457325 46.7384C0.600677 47.416 0.767954 48.086 0.958625 48.7483L2.88055 48.195C2.70307 47.5785 2.54741 46.955 2.41402 46.3245L0.457325 46.7384ZM2.37429 52.6176C2.93209 53.8666 3.57683 55.0836 4.30391 56.2682L6.00847 55.222C5.32514 54.1087 4.72144 52.9686 4.20045 51.8021L2.37429 52.6176ZM6.64482 59.6201C7.47201 60.6718 8.36757 61.6948 9.32773 62.689L10.7664 61.2997C9.85071 60.3515 9.00001 59.3794 8.21684 58.3837L6.64482 59.6201ZM12.2945 65.4955C13.3054 66.3725 14.3699 67.2246 15.485 68.0517L16.6765 66.4454C15.6 65.6469 14.5755 64.8266 13.6051 63.9848L12.2945 65.4955ZM18.7939 70.3392C19.9104 71.0596 21.068 71.7589 22.2646 72.4371L23.2508 70.6971C22.0858 70.0368 20.961 69.3573 19.8782 68.6587L18.7939 70.3392ZM25.8429 74.3449C27.0194 74.9353 28.2279 75.5076 29.4665 76.0619L30.2834 74.2363C29.0706 73.6936 27.8889 73.1339 26.7399 72.5573L25.8429 74.3449ZM33.2091 77.6455C34.4297 78.1338 35.6757 78.606 36.9458 79.0622L37.6218 77.1799C36.3733 76.7315 35.1496 76.2677 33.952 75.7886L33.2091 77.6455ZM40.7689 80.3638C42.027 80.7696 43.306 81.1606 44.6047 81.5369L45.1613 79.6159C43.8812 79.245 42.6213 78.8598 41.3827 78.4604L40.7689 80.3638ZM48.4834 82.602C49.7667 82.9355 51.067 83.2554 52.3834 83.5616L52.8365 81.6136C51.5364 81.3112 50.2528 80.9954 48.9866 80.6663L48.4834 82.602ZM56.3039 84.4234C57.6037 84.6929 58.9175 84.9495 60.2444 85.1934L60.6059 83.2263C59.2936 82.9852 57.9946 82.7314 56.7099 82.465L56.3039 84.4234ZM64.1981 85.8757C65.5087 86.0876 66.8307 86.2873 68.1634 86.4749L68.4421 84.4944C67.1227 84.3087 65.8141 84.111 64.5173 83.9014L64.1981 85.8757ZM72.1438 86.9951C73.4613 87.1543 74.7881 87.3019 76.1234 87.4378L76.326 85.4481C75.003 85.3134 73.6886 85.1672 72.3837 85.0095L72.1438 86.9951ZM80.1247 87.8083C81.4466 87.9186 82.7759 88.0178 84.1119 88.1058L84.2432 86.1101C82.9188 86.0229 81.6012 85.9246 80.291 85.8152L80.1247 87.8083ZM88.1278 88.3353C89.4524 88.3997 90.7828 88.4532 92.1183 88.4958L92.182 86.4968C90.8576 86.4546 89.5383 86.4015 88.2248 86.3377L88.1278 88.3353ZM96.1391 88.5907C97.4665 88.6111 98.7981 88.6208 100.133 88.6198L100.132 86.6198C98.8074 86.6208 97.4865 86.6112 96.1698 86.5909L96.1391 88.5907ZM104.146 88.5847C105.477 88.5624 106.812 88.5296 108.148 88.486L108.083 86.4871C106.757 86.5303 105.433 86.5629 104.113 86.585L104.146 88.5847ZM112.152 88.324C113.485 88.2596 114.819 88.1845 116.154 88.0989L116.026 86.103C114.701 86.188 113.377 86.2624 112.055 86.3263L112.152 88.324ZM120.148 87.8112C121.479 87.7048 122.811 87.5878 124.142 87.4602L123.951 85.4693C122.631 85.5959 121.309 85.712 119.989 85.8176L120.148 87.8112ZM128.126 87.0463C129.453 86.8977 130.779 86.7385 132.104 86.5687L131.849 84.5849C130.535 84.7534 129.22 84.9113 127.903 85.0587L128.126 87.0463ZM136.076 86.0264C137.398 85.8349 138.718 85.6327 140.035 85.4197L139.716 83.4454C138.41 83.6566 137.1 83.8572 135.789 84.0471L136.076 86.0264ZM143.988 84.7463C145.304 84.5105 146.618 84.2638 147.926 84.0061L147.54 82.0438C146.243 82.2992 144.941 82.5438 143.635 82.7776L143.988 84.7463ZM151.85 83.1979C153.161 82.9158 154.466 82.6226 155.766 82.3181L155.31 80.3708C154.022 80.6725 152.728 80.9631 151.429 81.2426L151.85 83.1979ZM159.651 81.3701C160.954 81.0393 162.25 80.6969 163.539 80.343L163.01 78.4143C161.733 78.7649 160.449 79.1039 159.159 79.4316L159.651 81.3701ZM167.385 79.2461C168.675 78.8643 169.957 78.4705 171.231 78.0647L170.624 76.1591C169.364 76.5606 168.095 76.9504 166.818 77.3284L167.385 79.2461ZM175.033 76.8081C176.306 76.3723 177.568 75.9241 178.821 75.4635L178.13 73.5864C176.892 74.0418 175.644 74.485 174.385 74.916L175.033 76.8081ZM182.569 74.035C183.82 73.5414 185.059 73.035 186.286 72.5155L185.506 70.6738C184.295 71.1867 183.071 71.687 181.835 72.1746L182.569 74.035ZM189.966 70.9011C191.19 70.3452 192.4 69.7757 193.596 69.1925L192.72 67.3948C191.541 67.9698 190.347 68.5316 189.139 69.0802L189.966 70.9011ZM197.19 67.3764C198.381 66.7526 199.556 66.1144 200.715 65.4619L199.733 63.7193C198.593 64.3616 197.435 64.9901 196.262 65.6048L197.19 67.3764ZM204.196 63.4268C205.347 62.7287 206.479 62.0155 207.592 61.287L206.497 59.6136C205.403 60.3293 204.29 61.0304 203.159 61.7169L204.196 63.4268ZM210.929 59.0149C212.029 58.2359 213.107 57.4407 214.164 56.6293L212.945 55.0433C211.91 55.8386 210.852 56.6184 209.773 57.3828L210.929 59.0149ZM217.316 54.103C218.351 53.2365 219.362 52.3528 220.348 51.4518L218.998 49.9759C218.035 50.8566 217.046 51.7209 216.032 52.569L217.316 54.103ZM223.265 48.657C223.737 48.1823 224.203 47.703 224.661 47.2193L223.21 45.8435C222.762 46.3152 222.308 46.7828 221.847 47.2462L223.265 48.657Z" fill="black"/>
</svg>
