<svg width="600" height="600" viewBox="0 0 600 600" fill="none" xmlns="http://www.w3.org/2000/svg">
<path d="M300.105 0L559.913 150V450L300.105 600L40.2974 450V150L300.105 0Z" fill="white"/>
<path d="M119.109 441.41C148.993 479.66 254.254 447.357 354.216 369.259C454.177 291.16 510.986 196.841 481.101 158.59C451.216 120.34 345.955 152.643 245.994 230.741C146.033 308.84 89.224 403.159 119.109 441.41Z" stroke="#673AB8" stroke-width="16"/>
<path d="M481.101 441.41C510.986 403.159 454.177 308.84 354.216 230.741C254.255 152.643 148.994 120.34 119.109 158.59C89.2243 196.841 146.033 291.16 245.994 369.259C345.956 447.357 451.217 479.66 481.101 441.41Z" stroke="#673AB8" stroke-width="16"/>
<path d="M300.105 339.844C322.11 339.844 339.949 322.005 339.949 300C339.949 277.995 322.11 260.156 300.105 260.156C278.1 260.156 260.261 277.995 260.261 300C260.261 322.005 278.1 339.844 300.105 339.844Z" fill="#673AB8"/>
</svg>
